<svg xmlns="http://www.w3.org/2000/svg" width="21" height="21" viewBox="0 0 21 21" fill="none">
  <path d="M17.8183 5.0574C17.8765 5.11545 17.9227 5.18442 17.9542 5.26035C17.9857 5.33629 18.0019 5.41769 18.0019 5.4999C18.0019 5.58211 17.9857 5.66351 17.9542 5.73944C17.9227 5.81537 17.8765 5.88434 17.8183 5.9424L9.06829 14.6924C9.01023 14.7506 8.94126 14.7968 8.86533 14.8283C8.7894 14.8598 8.708 14.876 8.62579 14.876C8.54358 14.876 8.46218 14.8598 8.38625 14.8283C8.31032 14.7968 8.24135 14.7506 8.18329 14.6924L3.80829 10.3174C3.69093 10.2 3.625 10.0409 3.625 9.8749C3.625 9.70893 3.69093 9.54975 3.80829 9.4324C3.92565 9.31504 4.08482 9.24911 4.25079 9.24911C4.41676 9.24911 4.57593 9.31504 4.69329 9.4324L8.62579 13.3661L16.9333 5.0574C16.9913 4.99919 17.0603 4.95301 17.1362 4.92151C17.2122 4.89 17.2936 4.87378 17.3758 4.87378C17.458 4.87378 17.5394 4.89 17.6153 4.92151C17.6913 4.95301 17.7602 4.99919 17.8183 5.0574Z" fill="black"/>
</svg>
