<svg width="8" height="14" viewBox="0 0 8 14" fill="none" xmlns="http://www.w3.org/2000/svg">
<path fill-rule="evenodd" clip-rule="evenodd" d="M0.946698 0.246892C0.993144 0.200329 1.04832 0.163386 1.10906 0.13818C1.16981 0.112973 1.23493 0.0999985 1.3007 0.0999985C1.36647 0.0999985 1.43159 0.112973 1.49233 0.13818C1.55308 0.163386 1.60825 0.200329 1.6547 0.246892L7.6547 6.24689C7.70126 6.29334 7.7382 6.34851 7.76341 6.40926C7.78862 6.47 7.80159 6.53512 7.80159 6.60089C7.80159 6.66666 7.78862 6.73178 7.76341 6.79253C7.7382 6.85327 7.70126 6.90845 7.6547 6.95489L1.6547 12.9549C1.56081 13.0488 1.43347 13.1015 1.3007 13.1015C1.16792 13.1015 1.04058 13.0488 0.946698 12.9549C0.852812 12.861 0.800066 12.7337 0.800066 12.6009C0.800066 12.4681 0.852812 12.3408 0.946698 12.2469L6.5937 6.60089L0.946698 0.954892C0.900135 0.908447 0.863192 0.853271 0.837986 0.792526C0.812779 0.731781 0.799805 0.66666 0.799805 0.600892C0.799805 0.535125 0.812779 0.470004 0.837986 0.409259C0.863192 0.348514 0.900135 0.293338 0.946698 0.246892Z" fill="white"/>
</svg>
