<svg xmlns="http://www.w3.org/2000/svg" width="85" height="29" viewBox="0 0 85 29" fill="none">
  <path d="M42.1218 9.35716C37.629 9.35716 32.6271 6.96047 26.188 4.74692C19.749 2.53338 12.6839 0.503961 6.78962 0.503961C-0.638925 0.503961 -1.28273 4.43509 1.56785 9.35716C6.30726 17.5392 20.7147 28.4525 29.7191 28.4525C33.3165 28.4525 35.2479 27.0764 36.5296 23.8987C38.9186 17.9609 39.9091 15.7642 41.8534 15.7642C44.3801 15.7642 45.8153 20.8605 47.1583 23.9521C47.9428 25.7489 48.854 28.4505 50.3348 28.4505C52.1791 28.4505 52.5564 23.1354 55.5744 23.1354C58.6449 23.1354 58.3477 28.5 61.7866 28.5C66.739 28.5 76.6596 19.2142 81.6704 11.5875C86.0592 4.90532 84.8954 0.5 77.4698 0.5C71.1971 0.5 63.9459 2.8759 55.7913 5.60225C51.7304 6.96146 45.7548 9.3532 42.1228 9.3532L42.1218 9.35716Z" fill="#231F20"/>
</svg>
