<svg width="222" height="29" viewBox="0 0 222 29" fill="none" xmlns="http://www.w3.org/2000/svg">
<g clip-path="url(#clip0_488_6416)">
<path d="M42.5701 9.35761C38.0773 9.35761 33.0754 6.96092 26.6364 4.74738C20.1973 2.53383 13.1323 0.504411 7.23796 0.504411C-0.190586 0.504411 -0.834393 4.43554 2.01619 9.35761C6.7556 17.5396 21.163 28.4529 30.1674 28.4529C33.7648 28.4529 35.6962 27.0769 36.9779 23.8991C39.3669 17.9613 40.3574 15.7646 42.3017 15.7646C44.8284 15.7646 46.2636 20.8609 47.6067 23.9526C48.3911 25.7494 49.3024 28.451 50.7831 28.451C52.6274 28.451 53.0048 23.1359 56.0227 23.1359C59.0932 23.1359 58.7961 28.5005 62.235 28.5005C67.1874 28.5005 77.1079 19.2146 82.1187 11.588C86.5075 4.90577 85.3437 0.50045 77.9181 0.50045C71.6455 0.50045 64.3942 2.87635 56.2396 5.6027C52.1787 6.96191 46.2032 9.35365 42.5711 9.35365L42.5701 9.35761Z" fill="#231F20"/>
<path d="M95.2066 22.6673V9.83395H102.226V11.0286H96.4389V15.5458H101.544V16.7429H96.4389V22.6673H95.2066Z" fill="#231F20"/>
<path d="M108.281 22.6666C105.089 22.6666 103.395 20.3182 103.395 17.3449C103.395 14.4715 105.266 12.1666 108.321 12.1666C111.118 12.1666 112.754 13.9593 112.754 16.8199C112.754 17.0017 112.754 17.3321 112.734 17.5267H104.625C104.642 19.7727 106.004 21.4732 108.366 21.4732C110.496 21.4732 111.462 20.7049 112.307 20.057V21.3912C111.699 21.8368 110.496 22.6666 108.281 22.6666ZM111.552 16.4153C111.552 14.7353 110.369 13.319 108.309 13.319C106.249 13.319 104.919 14.6149 104.742 16.4153H111.552Z" fill="#231F20"/>
<path d="M115.095 20.4479C116.021 21.1186 116.813 21.4798 117.918 21.4798C119.239 21.4798 119.883 20.9277 119.883 19.7255C119.883 18.9103 119.387 18.5439 118.265 18.0564L117.241 17.5868C116.037 17.0373 115.36 16.3227 115.36 14.8961C115.36 13.2243 116.334 12.1666 118.2 12.1666C119.036 12.1676 119.865 12.361 120.643 12.7367V14.1015C119.893 13.6024 119.053 13.3434 118.2 13.3482C117.059 13.3482 116.399 13.8358 116.399 14.9373C116.399 15.6107 116.698 16.0389 117.703 16.4852L118.645 16.9135C120.148 17.6281 120.944 18.1776 120.944 19.7513C120.944 21.7894 119.623 22.6665 117.906 22.6665C116.931 22.6725 115.969 22.3931 115.099 21.8513L115.095 20.4479Z" fill="#231F20"/>
<path d="M128.032 22.6673C126.507 22.6673 125.551 21.9594 125.256 20.8219C125.096 20.1529 125.031 19.4674 125.063 18.7828V13.8774H123.283V12.7399H125.063L125.106 10.2264L126.357 9.83395V12.7399H129.749V13.8774H126.357V18.5965C126.337 19.1884 126.387 19.7806 126.507 20.3624C126.676 21.0479 127.205 21.5198 128.225 21.5198C128.946 21.5193 129.657 21.3645 130.302 21.0678V22.2252C129.586 22.5147 128.813 22.6652 128.032 22.6673Z" fill="#231F20"/>
<path d="M131.472 9.54772C131.48 9.36908 131.555 9.19616 131.688 9.05045C131.821 8.90474 132.005 8.79267 132.219 8.72814C132.433 8.66361 132.666 8.64946 132.89 8.68747C133.114 8.72548 133.319 8.81396 133.479 8.94192C133.639 9.06989 133.747 9.2317 133.79 9.40726C133.834 9.58282 133.81 9.76438 133.722 9.9294C133.633 10.0944 133.485 10.2356 133.295 10.3355C133.105 10.4354 132.881 10.4895 132.652 10.4911C132.494 10.4918 132.338 10.4678 132.192 10.4203C132.047 10.3729 131.915 10.3031 131.805 10.215C131.695 10.1269 131.609 10.0224 131.551 9.90779C131.494 9.79314 131.467 9.67068 131.472 9.54772ZM131.841 12.5592H133.466V22.6666H131.841V12.5592Z" fill="#231F20"/>
<path d="M138.626 22.6666L134.983 12.1666H136.17C138.309 18.4397 138.725 19.6512 139.11 20.9058C139.512 19.6512 139.864 18.5662 142.051 12.1666H143.172L139.529 22.6666H138.626Z" fill="#231F20"/>
<path d="M152.36 22.6666C151.818 22.6666 151.038 22.4085 151 21.0353C150.519 21.709 149.418 22.6666 147.519 22.6666C145.418 22.6666 144.34 21.2599 144.34 19.7706C144.34 18.5678 144.94 17.7057 146.079 17.1895C147.279 16.6397 149.038 16.4358 150.94 16.4151V15.8834C150.967 15.3755 150.913 14.8664 150.78 14.376C150.56 13.7024 149.838 13.3436 148.8 13.3436C147.513 13.3766 146.257 13.756 145.16 14.4432V13.1526C146.295 12.5199 147.565 12.1813 148.859 12.1666C150.98 12.1666 151.798 13.0029 152.038 14.1644C152.156 14.857 152.204 15.5602 152.18 16.2628V20.5862C152.181 20.7927 152.207 20.9982 152.258 21.198C152.316 21.2873 152.397 21.3587 152.492 21.4042C152.588 21.4497 152.693 21.4677 152.798 21.4561C153.108 21.4484 153.414 21.3791 153.699 21.2522V22.3724C153.276 22.5612 152.821 22.6613 152.36 22.6666ZM150.631 20.0571C150.851 19.799 150.932 19.3215 150.932 18.813V17.507C149.251 17.507 147.573 17.6721 146.628 18.1393C145.889 18.5058 145.55 18.9756 145.55 19.7087C145.55 20.9734 146.628 21.4638 147.649 21.4638C148.219 21.4843 148.786 21.3677 149.304 21.1233C149.822 20.8789 150.277 20.5137 150.631 20.0571Z" fill="#231F20"/>
<path d="M157.424 22.667C156.896 22.667 156.451 22.5051 156.205 21.8959C156.073 21.5695 156.04 21.0838 156.04 20.413V7.50033H157.063V20.3924C157.053 20.6384 157.075 20.8846 157.127 21.1223C157.194 21.3279 157.336 21.4487 157.655 21.4487C157.908 21.4316 158.155 21.3484 158.38 21.2046V22.4023C158.08 22.5732 157.754 22.6634 157.424 22.667Z" fill="#231F20"/>
<path d="M172.415 22.4311V20.8718C171.856 21.8976 170.683 22.667 169.27 22.667C166.479 22.667 165.4 20.3974 165.4 17.6636C165.4 14.7041 166.813 12.1729 170.368 12.1729C171.03 12.1669 171.69 12.276 172.321 12.4961V7.50033H174.759V22.4311H172.415ZM170.61 14.3066C168.86 14.3066 167.873 15.4017 167.873 17.4482C167.873 19.2305 168.544 20.4846 170.125 20.4846C170.466 20.4787 170.802 20.3903 171.108 20.2257C171.414 20.0612 171.683 19.8246 171.894 19.5331C172.175 19.0784 172.323 18.5423 172.321 17.9944V14.6605C171.783 14.4028 171.198 14.2818 170.61 14.3066Z" fill="#231F20"/>
<path d="M181.163 22.6666C177.968 22.6666 175.928 20.6145 175.928 17.4573C175.928 14.481 177.914 12.1666 181.202 12.1666C184.491 12.1666 186.457 14.3384 186.457 17.3962C186.457 20.4541 184.379 22.6666 181.163 22.6666ZM181.202 14.3002C179.341 14.3002 178.517 15.7871 178.517 17.4573C178.517 19.2396 179.438 20.5126 181.202 20.5126C182.967 20.5126 183.851 19.0665 183.851 17.4166C183.851 15.7668 183.106 14.3002 181.202 14.3002Z" fill="#231F20"/>
<path d="M201.252 22.6576L199.533 19.508C199.208 18.9338 198.938 18.4759 198.558 18.1682C198.178 17.8605 197.724 17.7297 197.093 17.7297H195.937V22.6479H193.476V9.91148C193.476 9.91148 197.001 9.83395 197.69 9.83395C198.883 9.83395 200.112 9.98658 200.853 10.35C201.957 10.9266 202.588 12.1307 202.588 13.548C202.592 14.0873 202.472 14.6195 202.24 15.0992C202.007 15.5789 201.668 15.9918 201.252 16.3027C200.89 16.5747 200.476 16.7576 200.039 16.8381C200.408 16.9607 200.744 17.1779 201.016 17.4705C201.346 17.8799 201.638 18.3221 201.888 18.7909L204.005 22.6673L201.252 22.6576ZM197.818 15.5953C198.361 15.5953 198.922 15.5177 199.283 15.2706C199.53 15.1242 199.734 14.9095 199.874 14.6495C200.014 14.3896 200.084 14.0942 200.077 13.7951C200.084 13.4753 200.001 13.1605 199.838 12.8912C199.675 12.6218 199.439 12.4102 199.162 12.2833C198.784 12.0726 198.114 12.0411 197.626 12.0411C196.866 12.0411 195.925 12.0968 195.925 12.0968V15.6001L197.818 15.5953Z" fill="#231F20"/>
<path d="M206.345 9.02791C206.34 8.82883 206.366 8.63043 206.422 8.44465C206.478 8.25887 206.563 8.08954 206.672 7.94684C206.78 7.80414 206.91 7.69104 207.054 7.61431C207.197 7.53758 207.351 7.49883 207.507 7.50037C207.821 7.50318 208.121 7.66561 208.342 7.952C208.563 8.2384 208.686 8.62535 208.684 9.02791C208.686 9.22676 208.657 9.4241 208.599 9.6083C208.54 9.79251 208.453 9.95985 208.344 10.1005C208.234 10.2411 208.103 10.3521 207.96 10.4271C207.816 10.502 207.662 10.5394 207.507 10.5369C207.352 10.5406 207.198 10.5039 207.055 10.4291C206.912 10.3543 206.782 10.243 206.673 10.1018C206.564 9.96065 206.479 9.79265 206.423 9.60803C206.367 9.42341 206.34 9.22603 206.345 9.02791ZM206.461 12.2341H208.57V22.667H206.461V12.2341Z" fill="#231F20"/>
<path d="M216.256 22.6666C213.059 22.6666 211.022 20.6145 211.022 17.4573C211.022 14.481 213.007 12.1666 216.296 12.1666C219.585 12.1666 221.55 14.3384 221.55 17.3962C221.55 20.4541 219.47 22.6666 216.256 22.6666ZM216.296 14.3002C214.432 14.3002 213.608 15.7871 213.608 17.4573C213.608 19.2396 214.531 20.5126 216.296 20.5126C218.061 20.5126 218.942 19.0665 218.942 17.4166C218.942 15.7668 218.197 14.3002 216.303 14.3002H216.296Z" fill="#231F20"/>
</g>
<defs>
<clipPath id="clip0_488_6416">
<rect width="221.103" height="28" fill="white" transform="translate(0.448273 0.5)"/>
</clipPath>
</defs>
</svg>
