<svg width="412" height="120" viewBox="0 0 412 120" fill="none" xmlns="http://www.w3.org/2000/svg">
<g opacity="0.4">
<path fill-rule="evenodd" clip-rule="evenodd" d="M226.947 68.67L226.945 68.6648C226.946 68.6665 226.946 68.6683 226.947 68.67Z" fill="url(#paint0_linear_228_8290)"/>
<path fill-rule="evenodd" clip-rule="evenodd" d="M226.945 68.6648L226.947 68.67L226.948 68.6723C229.011 73.9458 230.999 79.029 232.963 83.5727C233.77 85.4294 234.594 87.4079 235.442 89.4438C241.165 103.188 248.001 119.603 258.28 119.603C264.729 119.603 268.928 111.408 273.641 102.209C279.67 90.4415 286.541 77.0311 300.041 77.0311C311.93 77.0311 317.484 87.1733 323.196 97.6027C329.24 108.64 335.461 120 349.554 120C365.592 120 388.168 107.72 412 89.0415V-0.000488281H0V87.696C33.1465 106.973 66.6727 119.619 93.969 119.619C122.641 119.619 138.035 108.597 148.25 83.1445C167.291 35.585 175.185 17.9901 190.682 17.9901C207.123 17.9901 217.766 45.1997 226.945 68.6648Z" fill="url(#paint1_linear_228_8290)"/>
</g>
<defs>
<linearGradient id="paint0_linear_228_8290" x1="0" y1="59.9995" x2="412" y2="59.9995" gradientUnits="userSpaceOnUse">
<stop stop-color="#FF007F"/>
<stop offset="1" stop-color="#FF7F00"/>
</linearGradient>
<linearGradient id="paint1_linear_228_8290" x1="0" y1="59.9995" x2="412" y2="59.9995" gradientUnits="userSpaceOnUse">
<stop stop-color="#FF007F"/>
<stop offset="1" stop-color="#FF7F00"/>
</linearGradient>
</defs>
</svg>
