<svg xmlns="http://www.w3.org/2000/svg" width="20" height="21" viewBox="0 0 20 21" fill="none">
  <path d="M13.758 13.0048C14.7414 11.6627 15.1818 9.99876 14.9912 8.34583C14.8006 6.69289 13.993 5.17288 12.7299 4.0899C11.4669 3.00692 9.84161 2.44083 8.17918 2.5049C6.51675 2.56897 4.93981 3.25846 3.76385 4.43543C2.58788 5.6124 1.89962 7.19005 1.83675 8.85276C1.77388 10.5155 2.34105 12.1406 3.42478 13.403C4.50851 14.6655 6.02889 15.4721 7.68173 15.6616C9.33457 15.851 10.998 15.4093 12.3392 14.4248H12.3382C12.368 14.4654 12.4011 14.5044 12.4377 14.5416L16.3477 18.4522C16.5381 18.6428 16.7965 18.7499 17.0659 18.75C17.3353 18.7501 17.5937 18.6432 17.7843 18.4527C17.9748 18.2622 18.0819 18.0039 18.082 17.7344C18.0821 17.465 17.9752 17.2065 17.7848 17.0159L13.8748 13.1054C13.8385 13.0686 13.7994 13.0357 13.758 13.0048ZM14.02 9.10036C14.02 9.83399 13.8755 10.5604 13.5948 11.2382C13.3141 11.916 12.9026 12.5319 12.384 13.0506C11.8653 13.5694 11.2495 13.9809 10.5718 14.2616C9.89413 14.5424 9.16779 14.6869 8.43426 14.6869C7.70073 14.6869 6.97438 14.5424 6.29669 14.2616C5.619 13.9809 5.00323 13.5694 4.48455 13.0506C3.96587 12.5319 3.55443 11.916 3.27372 11.2382C2.99301 10.5604 2.84853 9.83399 2.84853 9.10036C2.84853 7.61873 3.43702 6.19777 4.48455 5.1501C5.53208 4.10243 6.95283 3.51385 8.43426 3.51385C9.91568 3.51385 11.3364 4.10243 12.384 5.1501C13.4315 6.19777 14.02 7.61873 14.02 9.10036Z" fill="#3B3935"/>
</svg>
